<?xml version="1.0" standalone="no"?>
<!DOCTYPE svg PUBLIC "-//W3C//DTD SVG 20010904//EN"
 "http://www.w3.org/TR/2001/REC-SVG-20010904/DTD/svg10.dtd">
<svg version="1.0" xmlns="http://www.w3.org/2000/svg"
 width="2160.000000pt" height="2160.000000pt" viewBox="0 0 2160.000000 2160.000000"
 preserveAspectRatio="xMidYMid meet">

<g transform="translate(0.000000,2160.000000) scale(0.100000,-0.100000)"
fill="#000000" stroke="none">
<path d="M11265 17249 c-11 -4 -34 -8 -52 -8 -17 -1 -34 -5 -38 -10 -3 -5 -19
-12 -35 -16 -31 -7 -34 -12 -24 -39 5 -13 9 -14 20 -5 9 7 14 7 14 1 0 -5 9
-12 20 -15 23 -6 27 -35 6 -43 -8 -3 -24 -1 -35 6 -16 8 -21 8 -21 -1 0 -8 -4
-8 -15 1 -8 6 -13 22 -12 33 2 18 -4 22 -25 23 -19 1 -30 -5 -33 -17 -4 -11
-15 -19 -26 -19 -10 0 -19 -4 -19 -10 0 -16 -61 -12 -74 5 -14 19 -84 4 -126
-26 -18 -14 -53 -24 -96 -29 -63 -7 -142 -29 -186 -51 -10 -5 -25 -9 -33 -9
-9 0 -47 -13 -86 -30 -38 -16 -106 -36 -150 -45 -44 -8 -85 -18 -90 -21 -6 -3
-29 -8 -52 -10 -23 -2 -53 -7 -67 -10 -14 -3 -25 -4 -25 -2 0 2 -13 -9 -29
-24 -16 -14 -35 -24 -42 -21 -9 3 -14 -2 -14 -15 0 -11 -8 -23 -17 -25 -13 -3
-14 -5 -3 -6 20 -1 37 -30 45 -74 6 -33 5 -35 -25 -39 -35 -5 -49 6 -24 20 12
7 4 10 -32 15 -27 3 -51 2 -54 -3 -3 -4 -15 -10 -27 -14 -14 -5 -23 -15 -23
-27 0 -17 6 -20 29 -17 16 1 35 -3 42 -9 8 -6 24 -13 37 -15 12 -1 23 -7 23
-13 0 -5 8 -19 17 -29 16 -18 16 -19 0 -13 -21 7 -48 -1 -48 -14 0 -5 9 -9 19
-9 14 0 18 -5 14 -20 -6 -22 -23 -27 -23 -7 0 8 -19 -4 -42 -26 -39 -37 -44
-39 -92 -34 -53 5 -106 -13 -106 -36 0 -6 -5 -4 -11 6 -9 16 -13 14 -42 -13
-18 -16 -37 -30 -44 -30 -6 0 -15 -5 -18 -11 -5 -7 5 -8 32 -4 l38 6 -39 -36
c-37 -36 -41 -37 -94 -33 -48 4 -59 2 -74 -16 -13 -16 -18 -17 -18 -6 -1 21
-26 -28 -35 -67 -6 -30 -4 -33 17 -33 17 0 19 -3 9 -9 -24 -15 -3 -31 26 -20
14 5 60 12 100 14 88 6 120 19 102 41 -9 11 -8 14 5 14 9 0 16 -4 16 -9 0 -5
17 -11 38 -14 28 -3 46 1 74 19 60 39 139 64 198 64 38 0 70 8 105 25 28 13
53 25 57 25 3 0 28 10 55 22 66 29 115 48 131 48 7 0 34 9 60 21 26 11 62 27
80 35 18 8 48 14 67 14 19 0 44 4 57 9 23 9 109 36 118 36 3 1 21 11 40 23 19
12 45 22 58 22 12 0 40 11 62 25 22 14 51 25 64 25 14 0 28 5 31 11 4 6 19 7
35 4 16 -4 31 -2 35 5 3 5 11 8 16 5 5 -4 13 4 18 17 6 13 10 18 10 11 1 -6 9
-10 19 -8 9 1 16 9 14 18 -2 11 2 15 12 11 9 -3 27 3 42 15 14 11 42 23 63 27
20 3 51 15 69 25 18 10 40 19 48 19 8 0 14 4 14 8 0 8 60 36 73 33 4 -1 7 4 6
11 -3 28 2 39 24 48 21 8 21 9 -5 9 -16 1 -28 -3 -28 -9 0 -5 -8 -10 -17 -9
-11 0 -13 3 -5 6 22 9 12 25 -13 21 -14 -3 -30 1 -36 8 -6 8 -18 14 -26 14 -7
0 -16 7 -19 15 -7 18 -40 20 -47 3 -4 -8 -6 -9 -6 -2 -1 6 17 31 39 54 42 44
45 65 15 100 -11 12 -11 22 0 53 7 21 15 39 17 41 1 1 15 8 31 16 15 7 27 17
27 21 0 11 -34 16 -55 8z m-785 -299 c0 -5 -4 -10 -10 -10 -5 0 -10 5 -10 10
0 6 5 10 10 10 6 0 10 -4 10 -10z m34 -5 c-4 -8 -10 -12 -15 -9 -14 8 -10 24
6 24 9 0 12 -6 9 -15z m-644 -264 c0 -5 -7 -11 -15 -15 -15 -5 -20 5 -8 17 9
10 23 9 23 -2z m-205 -371 c11 -18 -4 -46 -26 -47 -12 -1 -18 3 -15 10 3 7 9
20 12 30 7 19 20 22 29 7z m-285 -44 c0 -3 -4 -8 -10 -11 -5 -3 -10 -1 -10 4
0 6 5 11 10 11 6 0 10 -2 10 -4z"/>
<path d="M11345 17230 c-3 -5 -1 -10 4 -10 6 0 11 5 11 10 0 6 -2 10 -4 10 -3
0 -8 -4 -11 -10z"/>
<path d="M13339 17051 c-25 -15 -61 -33 -80 -40 -19 -6 -47 -24 -62 -41 -22
-23 -38 -30 -65 -30 -21 0 -69 -9 -107 -21 -39 -11 -97 -26 -130 -33 -33 -7
-73 -19 -90 -28 -16 -8 -50 -18 -75 -22 -42 -7 -179 -52 -245 -81 -16 -8 -61
-16 -100 -20 -38 -3 -90 -12 -115 -20 -67 -21 -157 -33 -224 -28 -33 2 -80 -1
-105 -7 -75 -20 -171 -29 -199 -20 -71 24 -203 10 -287 -29 -11 -5 -54 -25
-95 -44 -41 -19 -102 -42 -135 -51 -116 -32 -140 -40 -149 -48 -6 -4 -22 -8
-37 -8 -15 0 -31 -4 -34 -10 -3 -5 -14 -10 -23 -10 -9 0 -46 -11 -82 -24 -66
-25 -158 -50 -242 -66 -25 -5 -57 -15 -70 -24 -13 -8 -57 -24 -99 -35 -50 -12
-95 -32 -128 -56 -42 -31 -57 -36 -83 -31 -23 4 -47 -2 -94 -24 -35 -16 -72
-30 -82 -30 -10 0 -22 -4 -27 -9 -6 -4 -32 -14 -60 -21 -27 -8 -59 -19 -70
-26 -11 -6 -56 -20 -100 -29 -44 -10 -105 -30 -135 -46 -95 -49 -209 -99 -228
-99 -30 0 -251 -75 -349 -118 -51 -23 -116 -44 -145 -48 -32 -4 -71 -18 -98
-35 -25 -15 -81 -37 -125 -48 -44 -11 -109 -27 -144 -36 -36 -8 -80 -25 -98
-36 -23 -15 -52 -21 -99 -23 -53 -1 -69 -6 -83 -22 -10 -13 -40 -25 -81 -34
-36 -7 -74 -18 -85 -24 -30 -15 -43 -18 -115 -22 -36 -2 -81 -7 -100 -12 -36
-9 -66 -1 -140 36 -42 21 -61 22 -84 3 -14 -12 -16 -12 -11 1 8 21 -76 34
-115 18 -25 -10 -27 -14 -22 -60 4 -45 2 -51 -19 -59 -13 -5 -18 -10 -11 -10
7 -1 -5 -19 -27 -42 -29 -30 -44 -39 -59 -35 -11 4 -32 2 -47 -4 -21 -8 -30
-8 -36 1 -4 8 -10 6 -18 -7 -6 -11 -11 -13 -11 -6 0 6 -11 12 -25 12 -19 0
-25 -5 -25 -23 0 -13 5 -28 12 -35 6 -6 9 -14 5 -18 -10 -10 -27 6 -27 26 0
24 -27 32 -68 21 -20 -6 -32 -6 -32 0 0 5 7 9 15 9 24 0 17 18 -7 22 -13 2
-22 9 -21 16 5 24 -43 13 -57 -14 -12 -22 -12 -27 0 -35 13 -8 13 -10 1 -18
-12 -8 -12 -12 -2 -25 11 -13 8 -18 -23 -32 -19 -10 -33 -22 -29 -27 3 -5 -1
-13 -8 -18 -20 -13 -32 -11 -26 4 9 23 -17 45 -48 42 -53 -6 -80 5 -95 38 -7
18 -17 34 -21 37 -11 8 -15 85 -4 87 6 1 12 12 15 25 3 13 11 23 17 23 6 0 15
3 19 8 4 4 18 7 31 7 13 0 23 4 23 9 0 6 35 8 83 5 108 -5 158 10 189 56 18
26 32 36 56 38 18 2 32 8 32 14 0 6 12 8 31 4 19 -3 44 0 67 11 20 9 42 17 47
18 6 1 27 7 47 14 21 7 47 9 59 6 15 -5 19 -4 15 4 -5 7 2 11 18 11 14 0 54
13 88 29 35 15 81 34 103 40 22 7 47 15 55 18 8 3 24 5 35 4 11 -1 54 7 94 18
41 11 78 18 82 15 4 -2 9 2 12 10 4 10 17 13 45 9 24 -3 42 -1 46 6 4 6 15 11
24 11 9 0 28 12 41 25 13 14 30 25 39 25 8 0 47 11 86 24 39 13 97 30 129 37
31 8 57 17 57 21 0 5 8 8 19 8 26 0 88 27 98 42 23 38 -5 55 -86 54 -34 -1
-55 3 -58 11 -6 14 -134 19 -147 6 -10 -10 -60 -10 -67 1 -4 4 -18 0 -33 -9
-14 -9 -33 -15 -41 -11 -9 3 -24 0 -35 -6 -14 -9 -22 -9 -34 1 -12 10 -16 11
-16 1 0 -8 -9 -10 -26 -6 -19 5 -30 1 -44 -16 -18 -22 -19 -22 -37 -5 -14 14
-15 19 -5 26 7 4 10 15 6 24 -4 12 2 18 22 23 26 7 26 8 9 16 -14 5 -4 7 30 5
47 -2 50 -1 47 22 -2 14 0 21 7 17 6 -4 22 1 36 10 20 13 23 19 14 31 -10 11
-8 15 8 19 20 6 20 7 5 37 -10 18 -20 34 -25 35 -4 2 -14 10 -22 18 -11 11
-19 12 -35 4 -11 -6 -37 -10 -57 -10 -65 1 -88 -3 -99 -18 -8 -11 -18 -12 -45
-5 -37 11 -62 7 -53 -8 3 -5 -4 -9 -15 -9 -12 0 -21 -4 -21 -10 0 -5 -5 -10
-11 -10 -5 0 -8 4 -5 9 3 4 -12 -1 -34 -11 -22 -11 -40 -24 -40 -30 0 -5 -4
-7 -9 -4 -5 4 -11 1 -13 -5 -2 -6 -32 -12 -67 -13 -41 -2 -66 -8 -72 -17 -5
-8 -9 -10 -9 -5 0 5 -8 2 -17 -6 -10 -8 -34 -20 -53 -27 -19 -7 -44 -17 -55
-21 -11 -5 -36 -14 -56 -20 -20 -6 -50 -23 -68 -38 -31 -25 -259 -145 -419
-221 -40 -18 -70 -37 -67 -41 7 -11 -25 -21 -95 -30 -66 -9 -193 -53 -198 -70
-2 -6 3 -19 11 -28 27 -30 30 -66 8 -86 -11 -10 -18 -23 -14 -29 4 -6 -2 -8
-15 -5 -13 4 -25 1 -30 -7 -4 -7 -25 -16 -47 -19 -55 -9 -182 -75 -212 -110
-20 -24 -88 -65 -113 -68 -19 -2 -170 -66 -195 -82 -11 -7 -46 -21 -77 -30
-79 -23 -155 -90 -186 -164 -21 -50 -22 -60 -12 -98 13 -44 11 -69 -11 -160
-11 -47 -10 -54 15 -109 34 -74 47 -89 110 -122 43 -23 64 -27 136 -27 88 0
111 6 249 63 41 17 93 34 115 37 23 4 55 14 72 24 17 10 64 25 105 34 40 10
85 24 100 33 22 13 31 14 43 4 23 -20 3 -51 -62 -94 -31 -21 -88 -61 -127 -88
-89 -64 -217 -126 -284 -139 -29 -5 -98 -26 -154 -46 -56 -20 -120 -41 -142
-46 -22 -6 -66 -19 -98 -30 -33 -11 -88 -24 -124 -29 -36 -5 -86 -16 -111 -24
-26 -8 -87 -22 -137 -29 -49 -8 -110 -22 -134 -31 -24 -9 -80 -20 -124 -26
-44 -6 -87 -14 -96 -18 -9 -5 -37 -12 -63 -15 -27 -4 -48 -11 -48 -15 0 -14
-51 -29 -119 -35 -35 -3 -70 -11 -76 -16 -7 -6 -17 -10 -21 -9 -16 2 -54 -13
-54 -22 0 -5 -12 -14 -26 -20 -29 -11 -28 -17 5 -24 36 -7 41 -14 40 -64 -1
-26 2 -57 6 -70 5 -16 1 -29 -14 -45 -13 -13 -23 -40 -25 -62 -4 -47 2 -64 20
-64 8 0 14 -7 14 -15 0 -8 -5 -15 -11 -15 -5 0 -15 -13 -20 -30 -6 -16 -17
-30 -23 -30 -22 0 -49 -38 -41 -57 5 -12 9 -14 12 -5 3 6 11 12 19 12 8 0 14
7 14 16 0 26 43 13 50 -15 6 -27 55 -47 75 -31 18 15 310 6 329 -9 24 -20 -20
-84 -65 -93 -167 -35 -208 -46 -236 -63 -18 -11 -34 -27 -36 -37 -3 -9 -27
-30 -54 -47 -50 -31 -69 -73 -38 -85 8 -3 15 -12 15 -21 0 -8 3 -15 8 -15 4
-1 24 -3 44 -6 32 -5 42 -1 68 24 16 16 31 28 33 26 2 -2 17 0 33 5 21 6 51 3
99 -10 48 -13 90 -17 132 -14 54 5 65 2 89 -18 20 -18 28 -35 31 -73 5 -49 4
-51 -39 -92 -25 -24 -54 -49 -64 -57 -25 -17 -156 -88 -244 -131 -36 -18 -87
-51 -115 -74 -27 -23 -58 -48 -68 -56 -9 -7 -20 -14 -23 -14 -26 0 -206 -119
-279 -185 -98 -88 -152 -124 -260 -176 -38 -18 -77 -39 -86 -46 -8 -7 -52 -31
-97 -53 -45 -22 -96 -53 -113 -70 -35 -33 -112 -90 -208 -153 -54 -35 -71 -54
-107 -117 -36 -62 -43 -85 -44 -130 0 -30 -5 -74 -9 -98 -9 -44 12 -161 30
-172 5 -4 0 -16 -11 -28 -25 -27 -25 -43 1 -71 17 -18 28 -22 53 -16 32 7 83
8 159 3 31 -2 50 3 75 20 19 14 57 27 93 32 33 5 76 18 95 29 40 24 130 29
158 8 20 -15 35 -73 36 -135 0 -24 7 -71 16 -106 16 -63 16 -63 -10 -113 -15
-27 -33 -85 -42 -129 -29 -143 -33 -158 -54 -218 -11 -33 -26 -69 -34 -80 -19
-30 -28 -112 -14 -140 24 -54 59 -43 98 33 16 31 42 71 59 89 17 18 31 40 31
49 0 9 18 35 40 59 22 24 40 52 40 63 0 11 11 23 29 30 28 12 51 47 51 76 0 8
5 15 11 15 6 0 8 -7 5 -17 -7 -17 -6 -17 10 -1 17 16 16 19 -9 44 -15 15 -27
34 -27 44 0 19 33 53 43 44 9 -9 38 16 31 27 -3 5 2 6 10 3 9 -3 16 -1 16 5 0
6 6 11 13 11 17 0 45 34 53 63 4 17 18 28 47 38 47 15 177 89 220 125 41 34
100 48 156 35 25 -6 85 -13 134 -17 79 -6 91 -10 132 -41 25 -18 45 -40 45
-48 0 -8 6 -15 14 -15 8 0 16 -5 18 -10 2 -6 25 -11 51 -12 37 -2 51 2 58 15
10 18 54 23 63 8 4 -5 4 -15 1 -23 -5 -13 -217 -150 -244 -156 -36 -10 -108
-62 -128 -93 -35 -57 -123 -135 -233 -210 -69 -47 -214 -186 -294 -282 -33
-39 -73 -72 -127 -104 -43 -25 -84 -52 -91 -61 -9 -11 -13 -66 -13 -201 l0
-186 -44 -95 c-24 -52 -58 -108 -76 -125 -51 -48 -58 -69 -50 -151 8 -90 -11
-220 -35 -237 -23 -17 -47 -64 -59 -119 -15 -66 -14 -105 6 -134 18 -28 59
-138 74 -197 21 -86 67 -146 144 -186 59 -31 178 -30 250 4 62 28 101 25 148
-9 24 -18 46 -22 141 -24 74 -2 128 1 158 10 36 10 78 11 183 5 l136 -9 66 31
c36 17 76 31 89 31 40 0 164 24 164 31 0 4 14 14 30 23 23 11 30 12 30 2 0 -7
9 -21 19 -31 24 -21 73 -16 291 30 41 9 109 19 151 22 76 5 77 5 95 -23 13
-18 22 -57 26 -114 4 -47 10 -114 14 -150 3 -36 6 -70 7 -77 0 -7 -7 -30 -17
-51 -16 -36 -17 -43 -1 -123 10 -46 20 -96 22 -110 4 -24 -2 -31 -54 -63 -74
-46 -164 -89 -228 -111 -83 -28 -94 -29 -101 -11 -16 42 -120 -2 -209 -88 -28
-28 -82 -78 -118 -110 -67 -61 -81 -85 -70 -124 4 -18 10 -21 27 -16 11 4 23
11 24 15 2 5 9 9 16 9 7 0 21 9 31 20 10 11 22 17 26 14 5 -3 9 -1 9 3 0 5 24
22 53 37 28 16 77 45 107 65 30 21 72 40 92 44 20 3 65 19 100 36 43 22 77 31
111 31 41 0 49 3 57 24 8 23 65 46 175 72 17 4 35 11 42 16 23 18 117 -55 125
-96 4 -24 -53 -66 -89 -66 -26 0 -123 -46 -123 -58 0 -5 -33 -18 -72 -31 -40
-12 -81 -27 -91 -32 -10 -5 -62 -33 -115 -61 -53 -29 -99 -55 -102 -59 -3 -3
-16 -10 -30 -14 -14 -4 -38 -18 -55 -30 -16 -12 -55 -28 -85 -35 -30 -7 -70
-19 -87 -27 -30 -14 -33 -20 -33 -57 0 -62 14 -75 85 -78 54 -3 61 -1 70 20
12 27 19 28 44 1 14 -15 25 -19 43 -14 20 7 21 6 9 -9 -7 -9 -22 -16 -31 -16
-24 0 -29 -17 -18 -58 5 -18 7 -36 4 -41 -5 -8 67 -41 90 -41 6 0 19 9 29 20
10 11 39 30 64 41 81 38 115 57 119 68 2 6 -1 11 -7 11 -6 0 -20 9 -30 19 -19
19 -19 19 2 27 20 6 18 7 -10 11 -30 4 -32 7 -31 44 0 38 18 53 33 29 11 -18
21 -10 20 16 0 29 34 61 73 69 12 2 27 7 34 11 6 4 26 8 44 10 26 2 33 -2 38
-19 10 -38 -6 -96 -32 -122 -30 -30 -23 -40 22 -37 27 3 39 -4 74 -41 23 -25
46 -63 52 -86 6 -22 15 -43 21 -46 5 -4 50 -9 99 -11 76 -3 95 -1 124 17 22
13 37 16 41 9 10 -17 46 -12 112 16 65 28 113 27 113 -1 0 -8 -4 -15 -10 -15
-5 0 -7 -6 -4 -14 3 -8 -3 -19 -14 -25 -11 -6 -25 -24 -30 -41 -6 -16 -17 -30
-25 -30 -23 0 -30 -31 -10 -46 27 -20 66 -26 109 -16 54 12 181 14 226 3 33
-8 41 -6 65 15 37 32 71 40 89 22 13 -13 12 -18 -7 -42 -12 -16 -37 -35 -56
-42 -29 -13 -47 -44 -25 -44 5 0 27 -16 50 -36 31 -27 42 -43 42 -65 0 -24 -4
-28 -22 -26 -21 2 -23 -3 -26 -45 -2 -36 2 -54 18 -75 11 -16 24 -54 30 -85 5
-31 14 -67 20 -79 7 -12 12 -45 11 -74 0 -48 3 -55 48 -104 44 -48 52 -52 79
-46 47 10 75 -9 67 -46 -5 -24 -4 -28 9 -23 16 6 20 -4 17 -36 -4 -30 -26 -70
-42 -75 -16 -5 -30 -31 -43 -80 -5 -16 -1 -21 15 -22 11 -1 39 -11 62 -22 31
-14 54 -18 88 -14 32 4 55 0 77 -11 50 -26 43 -54 -33 -130 -36 -36 -65 -69
-65 -75 0 -6 -38 -49 -85 -97 -56 -57 -85 -94 -84 -108 1 -17 2 -17 6 -4 6 24
22 23 31 -3 7 -18 10 -19 21 -5 12 14 16 14 43 0 25 -13 28 -19 23 -44 -4 -16
0 -43 9 -63 14 -34 14 -36 -9 -51 -14 -9 -29 -16 -35 -16 -5 0 -10 -4 -10 -10
0 -5 -6 -10 -14 -10 -8 0 -24 -14 -36 -30 -12 -17 -27 -30 -33 -30 -19 -1 -69
-56 -103 -113 -22 -38 -50 -65 -107 -103 -42 -29 -84 -59 -92 -68 -9 -8 -42
-36 -75 -62 -33 -26 -73 -67 -89 -93 -35 -55 -65 -163 -56 -206 3 -16 8 -93
11 -169 4 -113 2 -147 -12 -182 -13 -33 -14 -50 -6 -76 6 -18 13 -48 16 -66 5
-38 43 -116 85 -177 24 -35 33 -41 81 -48 30 -5 123 -6 205 -4 133 5 156 8
208 31 32 14 75 26 96 26 29 0 56 12 114 50 42 27 83 50 92 50 35 0 228 72
350 130 71 34 149 68 174 75 25 8 89 29 141 48 52 19 122 38 155 42 33 4 85
17 115 30 30 13 80 28 112 34 31 5 73 19 94 30 21 12 44 21 50 21 6 0 31 9 55
19 24 11 67 23 94 27 28 4 59 13 70 20 11 7 49 20 85 29 107 27 234 68 256 82
12 7 47 20 80 29 32 8 66 21 74 29 9 8 26 15 39 15 12 0 49 12 83 26 41 17 80
26 117 26 59 0 68 3 264 97 80 38 119 51 152 51 29 0 64 9 95 25 27 14 66 25
85 25 24 0 74 19 147 55 60 30 118 55 129 55 10 0 33 13 51 29 45 39 65 48
123 56 33 5 116 41 245 107 152 76 210 111 260 157 36 32 97 75 135 95 39 21
77 44 85 51 8 7 38 17 65 21 28 4 61 15 74 25 13 11 30 19 37 19 8 0 14 4 14
9 0 5 18 12 41 16 23 4 50 16 60 26 10 10 26 19 35 19 13 0 14 3 4 15 -7 8
-16 13 -20 10 -4 -3 -10 5 -13 17 -4 12 -9 19 -13 15 -4 -4 -16 0 -26 10 -16
14 -26 15 -82 5 -100 -19 -151 10 -85 46 18 9 43 27 57 40 15 13 34 21 44 19
10 -3 16 -1 12 4 -3 5 1 9 10 9 8 0 17 -6 19 -12 4 -10 7 -10 15 0 11 17 80
53 95 51 28 -5 89 34 100 64 4 9 17 21 30 26 12 5 29 17 37 27 28 34 162 114
191 114 28 0 108 30 207 77 30 14 91 34 137 44 46 10 106 29 134 44 40 20 56
23 71 15 24 -13 87 -13 95 0 4 6 11 8 16 5 5 -4 9 -2 9 2 0 24 84 48 158 46
17 -1 32 2 32 7 0 5 6 7 14 4 8 -3 17 0 21 5 3 6 11 9 16 5 5 -3 24 -1 42 4
17 6 51 13 74 16 35 5 41 4 37 -9 -4 -11 1 -15 17 -15 26 -1 66 -26 50 -31 -6
-3 -2 -26 9 -58 11 -30 17 -57 15 -62 -3 -4 -18 -10 -33 -14 -26 -5 -50 -21
-103 -66 -19 -16 -17 -55 2 -43 5 3 9 -1 9 -8 0 -8 -35 -32 -77 -54 -72 -37
-95 -63 -49 -56 58 9 241 56 321 82 165 54 250 78 299 84 27 3 55 11 63 17 7
7 41 20 76 30 113 32 241 79 310 115 38 18 76 34 86 34 9 0 32 11 51 25 19 14
40 25 48 25 8 0 74 30 147 66 145 72 169 95 145 138 -7 13 -21 27 -32 29 -36
10 -8 30 33 24 33 -4 42 -1 58 19 16 21 27 24 77 23 36 0 71 5 90 15 37 19 63
70 47 95 -7 11 -5 25 9 50 12 20 21 59 23 93 2 44 8 65 24 82 40 43 29 53 -60
62 -127 11 -229 54 -229 96 1 29 23 55 84 99 74 52 136 112 136 132 0 11 -4
15 -12 11 -6 -4 -8 -3 -5 3 4 6 18 8 32 5 17 -3 25 0 25 10 0 8 19 23 43 33
23 10 56 29 73 41 17 13 43 26 57 29 85 22 207 88 207 113 0 7 -5 10 -10 7 -6
-4 -70 -11 -143 -16 -128 -9 -132 -9 -148 12 -14 19 -22 20 -70 14 -30 -3 -83
-7 -119 -8 -36 -1 -68 -6 -72 -11 -3 -6 -19 -11 -35 -13 -15 -2 -52 -11 -81
-20 -56 -16 -136 -11 -148 9 -4 5 6 21 22 33 39 31 40 71 2 84 -32 11 -38 31
-9 31 10 0 24 7 31 15 7 8 18 15 24 15 27 0 65 26 71 48 3 13 9 20 14 18 5 -3
14 1 21 9 17 20 37 19 51 -3 10 -16 15 -14 54 23 54 51 140 117 185 142 77 43
86 47 106 50 33 5 147 72 197 116 18 16 56 42 85 59 43 24 53 35 50 53 -2 15
8 31 32 51 19 16 43 36 52 44 10 8 18 22 18 32 0 10 6 18 14 18 8 0 16 4 18
10 6 18 119 33 160 21 27 -9 43 -9 58 -1 23 12 40 6 40 -15 0 -25 54 -35 106
-19 61 18 84 11 84 -26 0 -31 5 -33 105 -44 22 -2 49 -7 61 -11 16 -5 31 3 62
33 49 48 51 64 21 178 -12 43 -25 106 -30 139 -13 83 -15 88 -60 142 -21 26
-39 57 -39 68 0 30 194 180 251 195 74 19 79 21 74 30 -10 16 95 60 142 60 24
0 43 4 43 9 0 5 23 12 51 16 35 5 61 16 84 36 18 16 50 32 70 37 21 4 40 13
42 19 3 7 -17 28 -44 47 -38 28 -57 36 -93 36 -26 0 -51 5 -58 12 -16 16 -15
74 2 132 21 69 4 105 -55 120 -33 7 -45 34 -24 50 9 6 19 30 22 52 4 35 2 44
-17 57 -12 8 -37 46 -57 83 -19 37 -47 84 -62 103 -56 71 -71 104 -71 156 0
28 4 55 8 62 4 6 37 25 74 43 37 18 73 38 79 46 6 8 24 14 40 14 16 0 52 11
81 24 29 14 68 30 86 36 17 7 32 16 32 21 0 15 51 31 94 31 22 -1 60 10 88 24
52 26 317 124 337 124 6 0 11 5 11 11 0 8 4 8 15 -1 11 -10 17 -9 29 3 8 8 12
17 9 21 -3 3 0 12 6 20 10 12 10 19 -2 36 -13 18 -15 19 -21 4 -4 -10 -13 -14
-26 -11 -10 3 -20 1 -22 -5 -2 -5 -21 -11 -43 -13 -22 -3 -51 -8 -65 -11 -14
-4 -34 -8 -45 -9 -32 -5 -158 -46 -180 -60 -20 -12 -56 -23 -105 -31 -47 -9
-105 -26 -115 -34 -6 -5 -46 -18 -90 -30 -44 -12 -105 -34 -135 -49 -30 -15
-75 -33 -100 -40 -25 -7 -57 -17 -72 -21 -29 -9 -68 -3 -68 11 0 20 73 108 98
118 40 17 71 36 85 53 7 8 28 21 47 28 19 7 42 18 50 25 8 6 35 21 60 32 25
11 77 36 115 54 39 18 115 51 171 74 55 22 118 55 140 72 67 53 207 119 226
107 5 -3 36 13 69 35 34 23 67 41 74 41 16 0 23 19 17 43 -5 19 -56 24 -68 6
-3 -6 -28 -9 -58 -7 -37 2 -50 0 -48 -9 1 -7 -7 -13 -19 -13 -11 0 -17 5 -14
10 12 19 -59 10 -130 -16 -38 -14 -122 -43 -185 -65 -118 -41 -275 -103 -368
-145 -29 -13 -56 -24 -61 -24 -4 0 -35 -9 -69 -20 -62 -20 -92 -19 -92 6 0 23
35 51 92 72 30 11 75 34 99 50 24 16 64 36 89 45 25 9 99 37 165 62 66 26 140
53 165 60 25 7 77 27 116 43 40 16 98 38 130 47 90 26 112 41 139 95 30 60 32
117 5 162 -11 19 -26 64 -34 101 -16 79 -20 85 -46 69 -22 -14 -86 -16 -94 -4
-7 12 23 52 39 52 9 0 12 6 9 15 -4 9 0 15 8 15 8 0 29 7 46 15 16 9 46 16 66
17 19 1 33 5 30 9 -3 5 4 16 16 26 26 22 26 63 0 91 -11 12 -20 25 -20 30 0 5
-9 17 -20 27 -11 10 -33 39 -50 64 -45 70 -78 91 -170 106 -8 1 -27 7 -42 13
-20 8 -47 8 -105 -3 -137 -24 -147 -27 -193 -51 -30 -15 -67 -24 -112 -26 -46
-3 -73 -9 -86 -22 -23 -20 -33 -61 -20 -74 6 -6 -1 -22 -19 -41 -33 -38 -101
-53 -124 -29 -11 13 -22 9 -82 -25 -47 -27 -86 -42 -120 -45 l-50 -5 31 44
c17 24 46 61 64 81 31 34 179 164 247 216 16 12 35 39 41 60 6 20 22 57 35 82
21 43 31 81 41 160 3 19 8 38 12 41 4 3 52 16 107 29 130 31 168 46 161 66 -3
9 -6 18 -6 20 0 2 -13 4 -30 4 -28 0 -30 2 -30 38 0 25 -7 43 -20 55 l-21 18
22 30 21 30 -20 20 c-12 10 -25 19 -30 19 -5 0 -21 9 -35 21 -15 11 -46 22
-69 24 -24 1 -56 7 -73 12 -16 5 -97 8 -178 7 l-148 -1 -16 31 c-8 17 -22 39
-31 48 -32 37 22 59 193 78 50 5 103 14 119 18 l30 8 -36 22 c-19 12 -44 22
-56 22 -31 0 -148 38 -199 66 -25 13 -58 24 -73 24 -35 0 -58 25 -43 48 19 31
-24 77 -112 122 -44 22 -86 40 -94 40 -21 0 -131 51 -181 83 -80 53 -194 107
-226 107 -17 0 -53 4 -80 9 -30 6 -96 6 -169 0 -233 -17 -265 -21 -265 -34 0
-8 -29 -16 -77 -23 -43 -6 -105 -17 -138 -26 -33 -9 -104 -16 -158 -17 -95 -1
-98 0 -137 31 -22 17 -40 36 -40 41 0 5 -26 38 -58 72 -85 92 -210 312 -189
333 3 4 28 6 54 5 54 -1 105 19 146 57 45 42 38 53 -46 68 -23 4 -43 2 -51 -5
-10 -8 -21 -8 -40 -1 -15 5 -52 10 -83 10 -61 0 -109 18 -144 56 -19 20 -24
38 -26 84 0 33 -4 63 -7 69 -10 16 12 23 34 11 11 -6 29 -8 40 -5 10 3 21 1
24 -4 10 -15 36 -1 36 19 0 24 -18 37 -73 52 -51 13 -52 14 -37 53 13 35 -5
53 -59 60 -32 4 -41 1 -41 -10 0 -23 -34 -35 -103 -36 -74 -1 -106 13 -157 67
-19 20 -50 43 -69 51 -38 16 -99 58 -118 82 -24 28 -15 67 21 95 52 39 160 86
198 86 19 0 39 5 46 12 15 15 98 15 246 1 61 -6 119 -7 130 -3 12 5 15 9 9 9
-27 2 -11 21 16 21 17 0 33 -4 36 -10 3 -5 3 -10 -2 -10 -4 0 -22 -14 -40 -30
-18 -17 -40 -30 -51 -30 -35 0 -69 -58 -43 -74 12 -8 165 70 187 95 12 14 13
19 4 19 -9 0 -8 6 5 20 10 11 14 20 9 20 -5 0 -1 5 9 11 10 6 17 22 17 38 0
32 -38 131 -51 131 -4 0 -14 6 -21 13 -7 6 -32 24 -55 40 -64 41 -57 70 21 81
27 3 57 12 65 20 21 19 128 56 161 56 29 0 66 19 40 20 -9 1 -6 5 8 10 12 5
22 14 22 20 0 6 7 18 15 26 8 9 15 24 15 35 0 10 5 19 11 19 8 0 8 4 0 14 -13
16 -1 29 42 45 18 7 25 15 21 26 -4 9 -1 15 9 15 8 0 18 7 21 16 4 9 13 14 21
10 10 -3 15 1 15 12 0 28 -25 56 -51 58 -13 1 -36 4 -51 8 -16 3 -39 8 -53 11
-26 6 -77 54 -69 66 10 17 -40 30 -99 26 -61 -5 -90 -10 -232 -41 -83 -19
-309 -12 -363 10 -29 12 -33 17 -30 46 3 36 39 61 87 60 25 0 63 19 89 45 7 7
25 16 40 19 25 6 120 60 132 75 3 3 30 17 60 32 50 23 105 67 85 67 -4 0 -2 7
6 16 8 10 9 18 3 22 -6 4 -13 15 -17 25 -5 14 -18 17 -74 16 -95 -2 -116 3
-118 29 -1 12 2 22 6 22 4 0 11 12 17 28 14 40 43 66 113 103 35 19 71 47 83
66 11 17 28 34 36 37 15 5 27 13 82 49 14 9 32 17 40 17 17 1 58 35 58 48 0 6
9 13 19 17 32 10 44 31 32 54 -10 18 -19 20 -94 16 -45 -2 -104 1 -132 6 -81
17 -274 21 -335 9 -113 -24 -300 43 -300 107 0 13 -4 23 -10 23 -5 0 -10 11
-10 24 0 13 -7 29 -15 36 -8 7 -15 18 -15 25 0 6 -12 17 -26 24 -19 8 -25 17
-21 31 3 11 -1 24 -9 31 -8 6 -14 8 -14 4 0 -4 -21 9 -47 28 -42 30 -58 36
-124 41 -42 3 -96 13 -119 21 -61 22 -90 19 -141 -14z m901 -850 c0 -14 -18
-23 -30 -16 -6 4 -8 11 -5 16 8 12 35 12 35 0z m-6550 -740 c0 -6 -4 -13 -10
-16 -5 -3 -10 1 -10 9 0 9 5 16 10 16 6 0 10 -4 10 -9z m190 -42 c0 -5 -7 -9
-15 -9 -15 0 -20 12 -9 23 8 8 24 -1 24 -14z m-513 -151 c-3 -7 -5 -2 -5 12 0
14 2 19 5 13 2 -7 2 -19 0 -25z m-110 -14 c-3 -3 -12 -4 -19 -1 -8 3 -5 6 6 6
11 1 17 -2 13 -5z m-482 -62 c-8 -8 -25 10 -19 20 4 6 9 5 15 -3 4 -7 6 -15 4
-17z m345 -37 c0 -14 5 -25 10 -25 6 0 10 10 10 22 0 17 3 19 12 10 18 -18
-11 -43 -63 -52 -47 -9 -74 6 -58 31 5 8 9 9 9 3 0 -19 52 -3 57 17 8 28 23
23 23 -6z m90 -5 c0 -5 -4 -10 -10 -10 -5 0 -10 5 -10 10 0 6 5 10 10 10 6 0
10 -4 10 -10z m6045 -417 c-11 -7 -29 -13 -41 -13 -13 0 -32 -13 -46 -30 -13
-17 -38 -46 -55 -65 -18 -19 -33 -41 -33 -50 0 -8 -12 -21 -27 -28 -16 -6 -31
-16 -36 -22 -13 -18 -37 27 -37 69 0 50 18 88 45 96 11 3 32 13 47 23 15 10
33 20 40 21 7 2 20 6 28 9 18 8 111 14 124 8 5 -2 1 -10 -9 -18z m351 -69 c17
-7 36 -20 44 -28 7 -9 17 -16 23 -16 16 0 67 -51 67 -67 0 -9 -19 -13 -68 -13
-47 0 -79 -6 -106 -19 -48 -25 -122 -41 -189 -41 -29 -1 -97 -11 -152 -24
-108 -24 -140 -23 -155 5 -8 14 -5 23 12 39 35 33 65 42 153 43 77 2 83 4 125
39 25 20 72 52 105 71 62 36 78 37 141 11z m674 -204 c0 -5 8 -10 17 -10 14 0
15 -2 4 -12 -11 -10 -14 -10 -18 0 -3 6 -13 12 -23 12 -10 0 -22 5 -25 10 -4
6 5 10 19 10 14 0 26 -4 26 -10z m-3095 -170 c230 -20 412 -59 680 -147 295
-96 456 -167 511 -224 l27 -28 -29 0 c-124 2 -184 -3 -219 -17 -74 -30 -90
-39 -118 -66 -16 -16 -37 -28 -47 -28 -18 0 -30 -19 -30 -46 0 -8 8 -14 18
-14 9 0 28 -14 42 -31 14 -18 32 -38 41 -46 15 -14 14 -17 -5 -37 -12 -12 -37
-32 -57 -44 -32 -19 -46 -21 -115 -17 -69 5 -134 7 -276 6 -20 -1 -43 -8 -52
-16 -8 -9 -31 -16 -50 -17 -27 -1 -36 -6 -41 -25 -6 -25 -25 -32 -25 -8 0 8
-8 15 -18 15 -28 0 -34 -11 -17 -30 9 -10 17 -27 20 -38 8 -41 27 -63 73 -83
26 -11 55 -25 64 -30 25 -13 38 -11 38 5 0 13 5 13 33 2 17 -7 41 -16 52 -20
16 -6 17 -9 5 -17 -13 -9 -13 -10 1 -6 9 3 22 1 29 -3 10 -6 1 -20 -35 -55
-41 -41 -51 -46 -67 -36 -14 9 -18 8 -18 -4 0 -8 -11 -17 -24 -21 -22 -5 -24
-10 -19 -42 3 -21 10 -42 15 -49 17 -21 -2 -33 -47 -30 -45 3 -103 42 -117 77
-5 14 -91 44 -114 39 -5 -1 -27 -1 -50 0 -36 1 -42 4 -54 36 -9 22 -20 35 -32
35 -10 0 -21 7 -24 15 -4 8 -9 13 -13 10 -4 -2 -20 3 -35 11 -16 7 -39 14 -52
14 -13 0 -24 5 -24 10 0 6 -10 8 -24 4 -13 -3 -29 0 -37 8 -8 7 -21 13 -29 13
-8 0 -14 6 -13 13 2 6 -3 13 -10 13 -6 1 -23 3 -37 6 -24 4 -34 4 -87 2 -26
-1 -32 -19 -7 -19 14 0 14 -3 4 -15 -7 -8 -19 -15 -26 -15 -8 0 -14 -4 -14
-10 0 -6 -24 -10 -52 -9 -49 1 -51 2 -22 10 36 10 67 39 42 39 -8 0 -18 -4
-24 -10 -5 -5 -26 -12 -45 -15 -29 -5 -38 -2 -44 12 -7 16 -9 15 -15 -7 -7
-21 -8 -22 -9 -4 -1 13 -12 25 -35 33 -24 10 -32 19 -29 31 4 15 -4 19 -45 25
-39 5 -51 11 -55 27 -4 15 -10 19 -24 13 -34 -14 -73 -18 -73 -6 0 8 -39 11
-128 10 -108 0 -136 3 -181 21 -30 11 -60 19 -67 16 -8 -3 -19 5 -25 17 -7 12
-21 28 -31 36 -12 8 -18 21 -15 31 2 10 1 24 -4 31 -6 9 -9 -1 -9 -29 0 -29
-4 -41 -11 -36 -6 3 -9 17 -6 30 2 15 -1 24 -8 24 -6 0 -20 9 -29 19 -15 16
-22 18 -41 9 -18 -8 -28 -7 -46 6 -13 9 -40 16 -61 16 -21 0 -38 5 -38 10 0
14 -18 12 -62 -7 -21 -9 -37 -22 -34 -29 2 -6 -8 -17 -22 -24 -32 -15 -140
-22 -147 -10 -3 5 -22 9 -43 8 -20 0 -55 5 -77 10 -84 23 -273 -9 -298 -50 -7
-10 -20 -18 -29 -18 -10 0 -18 -4 -18 -10 0 -17 -74 -48 -120 -51 -27 -1 -54
-10 -66 -21 -12 -10 -25 -18 -30 -16 -5 1 -24 -6 -42 -16 -19 -9 -36 -15 -40
-12 -8 9 24 41 63 62 19 10 35 25 35 33 0 32 177 175 363 293 157 99 398 227
517 273 145 56 396 137 525 169 75 18 293 54 400 65 117 12 570 12 710 1z
m3128 -269 c32 -12 128 -107 147 -146 8 -16 27 -35 41 -42 50 -24 179 -220
179 -271 0 -20 -89 -57 -150 -64 -36 -4 -86 -10 -113 -14 -39 -5 -56 -2 -98
21 -48 25 -58 26 -138 21 -47 -3 -103 -12 -124 -19 -42 -15 -124 -8 -137 12
-4 8 -19 10 -41 6 -27 -5 -41 -1 -68 19 -19 14 -42 38 -52 53 -15 23 -16 30
-4 52 7 15 11 38 8 51 -4 21 2 29 36 48 35 20 41 28 41 57 0 32 4 35 78 72 42
22 92 42 109 46 18 4 74 26 125 51 129 61 126 60 161 47z m-1524 -352 c22 -11
45 -27 52 -35 7 -9 31 -25 53 -36 22 -11 64 -43 93 -71 29 -27 65 -58 80 -67
58 -35 292 -282 371 -392 43 -58 56 -106 27 -94 -8 3 -15 2 -15 -2 0 -4 -27
-5 -60 -4 -52 3 -63 8 -87 35 -60 68 -78 75 -185 70 -110 -6 -137 -1 -118 22
6 8 12 48 12 91 1 72 0 79 -25 100 -35 30 -77 103 -106 184 -16 44 -35 75 -60
97 -20 18 -38 33 -41 33 -3 0 -16 18 -30 39 -13 22 -28 37 -34 34 -5 -3 -6 -1
-2 5 10 17 30 15 75 -9z m-3279 -109 c0 -5 -7 -10 -15 -10 -8 0 -15 5 -15 10
0 6 7 10 15 10 8 0 15 -4 15 -10z m-4130 -58 c0 -30 -21 -42 -74 -42 l-51 1
35 29 c40 34 90 41 90 12z m8844 -68 c9 -3 16 -12 16 -19 0 -22 37 -28 152
-27 95 0 108 -2 113 -18 4 -11 20 -20 46 -24 23 -4 59 -16 81 -27 34 -17 51
-19 122 -14 l82 6 22 -39 c12 -22 22 -46 22 -53 0 -8 16 -32 35 -54 41 -45 53
-79 35 -100 -9 -10 -18 -12 -37 -4 -18 7 -28 6 -33 -1 -13 -21 -142 -60 -199
-60 -33 -1 -64 -7 -75 -15 -11 -8 -40 -15 -64 -15 -24 0 -82 -12 -129 -26
-120 -36 -165 -24 -207 56 -29 56 -103 171 -170 263 -39 54 -75 105 -81 113
-13 18 11 36 39 30 11 -3 27 -1 37 5 10 5 43 11 74 13 31 2 59 7 62 10 8 8 37
8 57 0z m927 -111 c7 -43 5 -53 -12 -53 -21 0 -26 -16 -6 -23 9 -4 8 -8 -3
-16 -23 -16 16 -40 49 -31 14 3 40 3 58 0 17 -4 36 -3 41 2 5 5 20 6 34 3 37
-10 32 -47 -8 -60 -17 -6 -38 -16 -46 -23 -8 -6 -27 -13 -42 -14 -15 -1 -32
-8 -38 -15 -15 -18 -42 -16 -61 5 -19 21 -87 164 -87 182 0 27 34 49 78 49 23
1 43 -2 43 -6z m-10126 -113 c3 -5 1 -10 -4 -10 -6 0 -11 5 -11 10 0 6 2 10 4
10 3 0 8 -4 11 -10z m5280 -110 c4 -6 11 -8 16 -5 5 4 9 -1 9 -10 0 -9 9 -19
20 -22 11 -3 20 -9 20 -13 0 -4 7 -11 16 -14 8 -3 12 -2 9 4 -10 16 23 24 40
10 8 -7 22 -10 30 -6 8 3 15 1 15 -4 0 -5 9 -12 21 -15 11 -4 24 -18 29 -31 7
-17 17 -24 35 -24 14 0 25 -4 25 -9 0 -14 43 -21 56 -10 7 6 34 10 61 10 26
-1 202 -3 390 -5 301 -3 345 -5 368 -20 31 -20 65 -73 65 -101 0 -36 17 -48
77 -56 47 -6 63 -14 86 -39 25 -28 27 -36 27 -123 0 -128 20 -211 75 -311 54
-99 99 -143 192 -186 99 -47 157 -60 255 -58 117 2 150 -18 173 -107 10 -38
15 -41 80 -65 53 -19 75 -33 93 -60 l24 -35 -6 -349 c-8 -394 -12 -417 -74
-443 -27 -11 -61 -13 -151 -8 -64 3 -134 10 -156 15 -22 5 -85 19 -140 31 -86
18 -219 66 -319 115 -56 27 -54 43 -55 -355 -1 -325 0 -371 14 -385 9 -9 22
-16 28 -16 7 0 18 -9 25 -20 10 -16 9 -27 -3 -56 -8 -20 -15 -48 -15 -63 1
-63 -10 -254 -15 -274 -4 -12 -19 -47 -35 -77 -15 -30 -33 -82 -40 -115 -27
-133 -111 -329 -194 -454 -48 -71 -55 -86 -44 -100 11 -14 11 -14 -3 -4 -13
10 -28 -1 -99 -72 -47 -47 -80 -85 -75 -85 5 0 -8 -16 -29 -36 -26 -24 -41
-32 -46 -25 -5 8 -14 6 -31 -8 -15 -13 -19 -20 -10 -21 9 0 4 -9 -12 -23 -15
-12 -27 -28 -27 -35 0 -7 -16 -12 -42 -13 -75 -2 -98 -7 -171 -39 -126 -56
-133 -58 -183 -65 -27 -4 -73 -14 -103 -22 -31 -9 -73 -13 -100 -10 -27 3 -54
1 -62 -3 -8 -6 -16 -4 -20 2 -6 9 -11 9 -21 0 -17 -14 -186 -9 -214 6 -25 13
-122 46 -214 72 -169 50 -334 153 -483 303 -38 37 -88 80 -110 94 -86 54 -187
149 -249 235 -23 31 -32 38 -39 27 -7 -11 -9 -9 -9 7 0 12 -11 26 -25 34 -25
13 -65 83 -65 113 0 9 -4 18 -9 21 -5 3 -7 14 -4 24 2 10 -3 31 -11 47 -9 17
-16 36 -16 42 0 7 -10 19 -23 28 -13 8 -34 40 -46 70 -24 57 -25 97 -5 227 5
33 2 59 -11 92 -10 26 -18 71 -18 101 0 53 -11 72 -23 40 -8 -21 -18 -19 -29
8 -7 16 -20 23 -47 25 -21 2 -38 7 -38 13 0 5 3 8 8 8 24 -4 23 4 -6 31 l-33
30 -22 -23 c-21 -23 -85 -54 -99 -49 -4 1 -5 -5 -2 -13 4 -8 11 -15 16 -15 5
0 7 -13 3 -29 -5 -25 -3 -30 17 -33 21 -4 21 -5 4 -13 -13 -6 -21 -3 -28 8 -6
12 -22 17 -51 17 -31 0 -38 -3 -27 -10 9 -6 10 -10 3 -10 -6 0 -18 9 -25 19
-8 11 -26 25 -41 32 -15 7 -27 16 -27 21 0 4 -18 8 -40 8 -23 0 -40 -5 -40
-11 0 -7 -13 -9 -37 -5 -21 3 -50 6 -64 6 -14 0 -34 8 -45 18 -16 15 -43 20
-138 25 -66 4 -125 12 -131 17 -7 6 -20 8 -28 4 -28 -11 -81 15 -102 49 -10
17 -23 52 -26 75 -7 40 -4 48 27 89 19 24 34 49 34 54 0 5 7 9 15 9 8 0 15 6
15 13 0 8 11 24 25 37 31 29 30 64 -1 68 -12 2 -30 12 -40 23 -11 12 -30 19
-55 19 -21 0 -41 5 -44 10 -3 6 -15 10 -26 10 -14 0 -19 7 -19 25 0 14 4 25 9
25 5 0 13 9 16 20 3 11 12 20 19 20 8 0 19 7 26 15 7 8 23 15 36 15 13 0 24 5
24 10 0 6 6 10 14 10 8 0 16 3 18 8 2 4 25 18 53 32 27 14 57 33 65 44 11 12
34 20 68 24 58 5 65 -4 32 -45 -11 -14 -20 -34 -20 -44 0 -10 -8 -23 -17 -28
-26 -13 -53 -64 -44 -80 5 -7 11 -12 15 -12 3 1 24 1 46 1 29 0 40 -4 40 -15
0 -8 -5 -15 -11 -15 -6 0 -7 -6 -2 -12 4 -7 7 -22 8 -33 0 -16 6 -19 30 -17
42 4 183 2 225 -3 19 -2 68 -7 109 -10 41 -3 83 -11 93 -16 29 -15 160 -22
202 -10 22 5 36 6 36 0 0 -14 30 -11 31 4 0 10 2 10 6 0 2 -7 12 -13 20 -13
12 0 14 -7 8 -27 -4 -16 -8 -29 -9 -30 -1 -2 -26 -4 -54 -5 -29 -2 -52 -6 -52
-10 0 -5 -6 -8 -14 -8 -8 0 -18 -10 -22 -22 -9 -30 19 -48 73 -48 28 0 46 -5
49 -14 3 -8 19 -20 35 -26 26 -11 32 -10 47 6 34 37 49 70 54 114 5 47 15 63
111 192 31 42 57 81 57 85 0 5 20 31 45 60 25 28 45 53 45 56 0 9 112 118 161
156 25 20 56 47 70 59 40 38 94 69 145 85 27 8 92 33 145 55 175 73 218 81
454 84 230 2 260 -3 287 -50 8 -15 18 -44 22 -64 4 -21 10 -39 14 -42 19 -12
94 -16 112 -6 20 11 20 19 20 689 0 458 -3 688 -11 709 -11 33 -59 53 -82 34
-7 -5 -29 -15 -50 -22 -35 -11 -42 -9 -120 29 -45 22 -95 43 -112 47 -16 4
-33 12 -37 18 -4 6 -13 11 -20 11 -14 0 -78 90 -78 109 0 6 15 18 33 25 17 8
38 21 45 28 7 7 20 13 28 13 8 0 14 5 14 10 0 13 57 13 65 0z m2718 -209 c47
-18 45 -91 -2 -91 -9 0 -22 -5 -28 -11 -6 -6 -25 -9 -43 -7 -27 2 -38 11 -55
43 -18 31 -20 44 -12 62 9 20 16 22 62 18 29 -2 64 -9 78 -14z m-4908 -2001
c3 -5 -1 -10 -10 -10 -9 0 -13 5 -10 10 3 6 8 10 10 10 2 0 7 -4 10 -10z
m-3795 -24 c0 -24 -17 -28 -23 -6 -3 13 0 20 9 20 8 0 14 -6 14 -14z m4570
-101 c0 -9 -9 -15 -25 -15 -18 0 -23 4 -19 15 4 8 15 15 25 15 10 0 19 -7 19
-15z m8703 -15 c3 -11 1 -20 -4 -20 -5 0 -9 9 -9 20 0 11 2 20 4 20 2 0 6 -9
9 -20z m-8933 -354 c0 -3 -4 -8 -10 -11 -5 -3 -10 -1 -10 4 0 6 5 11 10 11 6
0 10 -2 10 -4z m3288 -383 c-4 -24 -39 -25 -68 -2 l-25 19 28 25 29 26 20 -26
c11 -14 18 -32 16 -42z m-3855 -453 c39 1 36 -31 -5 -49 -18 -8 -40 -23 -48
-34 -20 -24 -136 -30 -150 -7 -7 11 -4 16 11 18 13 2 19 9 15 18 -3 9 1 14 14
14 11 0 20 6 20 13 0 19 49 37 85 31 17 -3 42 -4 58 -4z m-188 -120 c3 -5 1
-10 -4 -10 -6 0 -11 5 -11 10 0 6 2 10 4 10 3 0 8 -4 11 -10z m4010 -132 c14
-6 25 -15 25 -20 0 -4 8 -8 18 -8 10 0 28 -12 41 -26 19 -22 28 -25 65 -20 33
3 49 0 63 -13 10 -10 23 -16 29 -14 6 2 19 -6 29 -17 18 -20 18 -21 -3 -43
-22 -21 -23 -21 -68 -4 -45 16 -46 16 -41 -2 4 -18 3 -18 -29 -5 -42 17 -44
17 -44 -1 0 -18 -26 -20 -33 -2 -4 9 -8 8 -16 -3 -10 -13 -11 -13 -12 0 -1 8
-1 22 0 31 1 10 -8 19 -24 23 -14 4 -23 10 -20 15 2 5 -6 16 -20 25 -14 9 -25
14 -25 11 0 -18 -29 26 -35 53 -7 32 -6 32 34 32 22 0 52 -5 66 -12z m125
-198 c0 -5 -9 -14 -20 -20 -11 -6 -17 -16 -14 -22 4 -7 3 -8 -5 -4 -11 7 -8
18 12 44 11 14 27 16 27 2z m3960 -101 c0 -5 5 -7 10 -4 6 3 10 -1 10 -9 0 -9
-9 -16 -20 -16 -11 0 -20 -4 -20 -10 0 -9 -80 -50 -98 -50 -6 0 -35 -25 -66
-55 -52 -51 -60 -56 -99 -54 -23 1 -58 -1 -77 -6 -40 -9 -110 -44 -110 -55 0
-4 -21 -13 -47 -21 -27 -7 -67 -21 -90 -31 -23 -10 -60 -20 -82 -23 -23 -2
-51 -11 -63 -19 -25 -18 -78 -22 -78 -6 0 17 -38 11 -45 -7 -8 -25 -52 -55
-74 -51 -18 3 -18 5 -4 48 8 25 18 47 22 50 3 3 16 26 28 53 13 26 28 47 33
47 6 0 8 4 5 10 -3 5 3 15 15 22 11 7 20 18 20 25 0 20 15 23 45 7 47 -24 186
-1 168 29 -4 6 -1 7 7 2 7 -4 15 -2 19 4 6 9 16 7 40 -6 30 -17 33 -17 42 -1
10 19 107 58 143 58 13 0 37 7 54 16 59 29 173 37 188 13 3 -5 15 2 28 16 27
29 46 32 46 9 0 -18 24 -14 26 4 2 20 4 22 14 22 6 0 10 -5 10 -11z m-1175
-265 c14 -9 25 -22 25 -29 0 -15 28 -28 42 -19 13 8 0 -35 -17 -56 -6 -8 -17
-29 -24 -47 -7 -17 -29 -48 -49 -67 -36 -36 -52 -44 -52 -26 0 6 7 10 15 10
20 0 21 68 0 76 -15 6 -105 -75 -105 -95 0 -6 -5 -11 -11 -11 -5 0 -7 5 -3 12
4 6 3 8 -4 4 -6 -3 -28 5 -48 19 -27 18 -49 25 -75 23 -21 -1 -36 -6 -33 -10
3 -5 10 -6 15 -3 15 10 10 -12 -6 -25 -10 -9 -15 -9 -15 -1 0 6 -4 11 -10 11
-5 0 -7 -6 -4 -14 10 -26 -15 -27 -38 -1 l-24 25 -22 -20 c-18 -17 -20 -25
-12 -40 7 -13 7 -32 2 -52 -7 -27 -14 -33 -35 -33 -14 1 -24 -2 -21 -6 2 -4
-11 -10 -30 -13 -34 -7 -70 -35 -47 -37 35 -4 51 -16 51 -37 0 -22 -92 -62
-140 -62 -216 2 -235 4 -232 27 4 26 -12 36 -53 37 -17 1 -30 6 -30 14 0 14
45 70 117 147 27 27 48 55 48 61 0 12 47 57 78 73 30 16 58 14 103 -10 43 -22
129 -34 129 -18 0 5 6 9 14 9 7 0 20 10 28 22 13 20 17 21 32 9 9 -7 16 -24
16 -36 0 -15 8 -25 22 -28 24 -7 51 10 42 24 -3 5 6 9 20 9 14 0 28 5 32 11 9
16 -11 32 -40 32 -19 0 -26 5 -26 18 0 21 26 26 32 7 3 -7 10 -8 17 -4 11 7
11 10 0 17 -11 7 -10 9 4 10 9 1 22 3 27 4 6 1 29 3 53 4 33 2 38 4 22 11 -18
8 -17 9 7 9 35 1 108 32 108 46 0 6 15 16 33 22 46 15 45 15 72 -3z m1207
-136 c-15 -15 -26 -4 -18 18 5 13 9 15 18 6 9 -9 9 -15 0 -24z m-540 -188
c-13 -11 -30 -16 -39 -13 -10 4 -14 2 -9 -5 3 -6 2 -13 -4 -17 -5 -3 -10 1
-10 10 0 9 15 22 33 30 45 20 56 18 29 -5z m-92 -40 c0 -5 -5 -10 -11 -10 -5
0 -7 5 -4 10 3 6 8 10 11 10 2 0 4 -4 4 -10z m-3273 -121 c29 -15 39 -27 38
-42 -3 -43 -103 -49 -125 -8 -16 30 -4 48 47 70 0 1 19 -8 40 -20z m-5740 -93
c-15 -31 -20 -27 -11 8 3 14 10 24 14 21 5 -3 3 -16 -3 -29z m5828 -252 c8
-12 10 -25 4 -35 -8 -15 -105 -69 -124 -69 -5 0 -36 -13 -69 -30 -58 -28 -113
-37 -191 -31 l-30 3 30 10 c16 6 44 27 62 45 17 19 36 32 41 29 20 -12 130 33
167 68 28 28 43 35 66 32 17 -2 36 -12 44 -22z m82 10 c-3 -3 -12 -4 -19 -1
-8 3 -5 6 6 6 11 1 17 -2 13 -5z m-50 -10 c-3 -3 -12 -4 -19 -1 -8 3 -5 6 6 6
11 1 17 -2 13 -5z m-543 -211 c-5 -5 -12 -12 -16 -18 -4 -6 -8 -2 -8 8 0 9 7
17 17 17 9 0 12 -3 7 -7z m-130 -47 c-31 -14 -80 -11 -90 5 -3 5 23 9 58 9 62
-1 62 -1 32 -14z m-5670 -281 c-9 -14 -20 -25 -25 -25 -5 0 1 11 13 25 12 14
23 25 25 25 2 0 -4 -11 -13 -25z m4511 -382 c94 -13 201 -17 491 -17 290 -1
368 -4 360 -13 -25 -28 -32 -39 -34 -48 -1 -5 -14 -12 -29 -13 -15 -2 -34 -8
-40 -14 -7 -6 -46 -12 -86 -13 -78 -4 -171 -31 -212 -63 -14 -11 -45 -23 -68
-27 -23 -4 -46 -11 -52 -15 -5 -4 -28 -10 -50 -13 -53 -8 -64 -11 -105 -30
-19 -9 -30 -17 -25 -17 6 -1 -1 -5 -13 -11 -29 -11 -43 -4 -35 18 5 13 1 15
-33 9 -64 -11 -102 -26 -108 -42 -3 -8 -16 -18 -28 -23 -19 -7 -25 -4 -35 20
-12 29 -50 43 -40 15 4 -10 0 -12 -14 -9 -12 4 -29 -5 -48 -26 -16 -17 -38
-31 -48 -31 -10 0 -24 -5 -31 -12 -9 -9 -15 -9 -24 0 -18 18 -31 15 -24 -5 4
-10 4 -14 0 -11 -10 11 -44 -11 -44 -28 0 -12 -5 -14 -17 -8 -32 13 -93 17
-93 5 0 -6 -5 -10 -11 -9 -6 2 -13 -8 -15 -22 -6 -35 -17 -42 -48 -30 -40 15
-54 12 -61 -10 -7 -22 -35 -28 -35 -7 0 6 -7 3 -16 -8 -13 -18 -13 -21 2 -32
15 -11 15 -15 3 -29 -11 -13 -25 -15 -77 -10 -60 6 -153 40 -160 58 -2 4 -11
8 -20 8 -23 0 -102 40 -102 52 0 6 10 8 24 4 32 -8 86 4 86 18 0 21 -49 56
-79 56 -34 0 -56 -23 -56 -59 0 -23 -4 -26 -29 -23 -53 7 -76 20 -76 44 0 19
-2 20 -10 8 -9 -13 -11 -13 -19 -1 -10 15 25 39 79 56 14 4 32 13 40 20 8 7
47 25 85 40 39 14 104 42 145 61 42 19 79 34 83 34 18 0 186 88 180 94 -4 4 0
4 9 1 9 -4 19 -2 23 4 3 6 15 11 26 11 10 0 19 5 19 10 0 6 11 10 23 10 13 0
43 14 66 31 24 17 51 31 62 32 10 1 19 5 19 8 0 22 181 22 325 2z m-2845 0
c-1 -21 -31 -44 -52 -41 -35 5 -36 36 -1 41 49 7 53 7 53 0z m3795 -23 c3 -5
-3 -10 -14 -10 -12 0 -21 5 -21 10 0 6 6 10 14 10 8 0 18 -4 21 -10z m3385
-304 c0 -2 -8 -10 -17 -17 -16 -13 -17 -12 -4 4 13 16 21 21 21 13z m-6670
-531 c0 -8 -7 -15 -15 -15 -16 0 -20 12 -8 23 11 12 23 8 23 -8z m-400 -17 c0
-17 -20 -47 -20 -31 0 6 -3 18 -6 27 -4 11 -1 16 10 16 9 0 16 -6 16 -12z
m3089 -659 c9 -28 8 -31 -29 -54 -22 -14 -44 -25 -49 -25 -5 0 -14 -7 -22 -16
-9 -11 -26 -15 -61 -12 -45 3 -64 -5 -35 -15 22 -7 -56 -91 -99 -105 -22 -7
-52 -19 -69 -27 -52 -23 -157 -62 -230 -86 -38 -12 -93 -31 -121 -41 -28 -10
-61 -20 -73 -21 -14 -1 -27 -11 -32 -24 -5 -13 -13 -23 -19 -23 -22 0 -8 -16
28 -31 32 -13 42 -14 70 -2 22 9 43 11 65 5 36 -9 48 -39 20 -48 -18 -6 -113
-49 -145 -65 -10 -5 -24 -9 -33 -9 -8 0 -40 -12 -72 -26 -32 -14 -67 -27 -78
-28 -11 -1 -27 -5 -35 -9 -27 -12 -130 -24 -135 -17 -3 5 2 11 11 14 8 3 12
10 9 16 -3 5 1 10 9 10 8 0 20 9 27 21 9 17 7 24 -11 41 -24 22 -22 45 4 40 9
-2 16 2 16 8 0 5 -5 10 -11 10 -5 0 -7 5 -4 10 3 6 -1 10 -10 10 -9 0 -13 -4
-10 -10 3 -5 1 -10 -4 -10 -15 0 -14 50 2 55 6 2 31 9 55 15 25 6 42 17 42 25
0 8 5 15 10 15 6 0 15 12 20 26 6 16 16 24 24 21 7 -3 19 0 25 6 12 12 16 13
46 16 8 0 15 10 15 21 0 25 45 67 81 75 14 3 41 21 58 39 19 20 52 39 77 46
25 7 47 17 50 21 3 5 15 9 28 9 13 0 33 9 46 20 13 11 31 20 42 20 10 0 18 5
18 10 0 6 27 10 60 10 45 0 62 -4 66 -15 7 -18 25 -20 22 -2 -2 6 4 12 12 12
8 0 14 -6 13 -12 -6 -29 16 -11 22 18 5 23 10 28 16 18 6 -10 11 -6 19 15 9
26 13 27 51 21 27 -5 39 -4 35 3 -9 15 67 38 131 39 26 1 33 -4 42 -28z m-154
-129 c3 -5 1 -10 -4 -10 -6 0 -11 5 -11 10 0 6 2 10 4 10 3 0 8 -4 11 -10z
m-1002 -527 c-7 -2 -13 -12 -13 -21 0 -13 -3 -13 -12 -4 -10 10 -10 15 2 22 8
5 20 9 25 9 6 0 4 -3 -2 -6z"/>
<path d="M11296 13745 c-3 -8 -12 -15 -20 -15 -25 0 -76 -34 -71 -47 2 -7 -1
-12 -7 -10 -16 3 -28 -62 -17 -90 8 -23 10 -23 25 -8 12 12 20 13 28 5 8 -8 7
-13 -3 -19 -8 -5 -16 -25 -18 -44 -3 -33 -1 -36 41 -52 43 -17 73 -14 61 6 -4
5 -1 9 4 9 6 0 11 -4 11 -10 0 -5 8 -10 17 -10 13 0 14 3 5 12 -16 16 3 48 28
48 11 0 20 5 20 10 0 6 -5 10 -11 10 -5 0 -15 14 -21 30 -5 17 -15 30 -22 29
-26 -3 -32 2 -31 28 0 19 8 31 25 40 24 12 23 15 -10 17 -11 1 -15 12 -14 39
1 38 -9 49 -20 22z m53 -191 c-6 -7 -8 -17 -5 -22 3 -6 -1 -15 -9 -22 -12 -10
-16 -9 -20 2 -3 8 -5 21 -3 29 2 9 -4 13 -14 11 -10 -2 -18 2 -18 7 0 10 47
19 68 13 9 -3 10 -8 1 -18z"/>
<path d="M11370 13660 c0 -5 5 -10 10 -10 6 0 10 5 10 10 0 6 -4 10 -10 10 -5
0 -10 -4 -10 -10z"/>
<path d="M9705 13649 c-10 -15 1 -23 20 -15 9 3 13 10 10 16 -8 13 -22 13 -30
-1z"/>
<path d="M9795 13640 c-8 -13 4 -32 16 -25 12 8 12 35 0 35 -6 0 -13 -4 -16
-10z"/>
<path d="M9105 13610 c-3 -5 -1 -10 4 -10 6 0 11 5 11 10 0 6 -2 10 -4 10 -3
0 -8 -4 -11 -10z"/>
<path d="M10706 13353 c5 -5 12 -12 16 -18 4 -6 8 -2 8 8 0 9 -7 17 -17 17 -9
0 -12 -3 -7 -7z"/>
<path d="M14835 13120 c4 -6 11 -8 16 -5 14 9 11 15 -7 15 -8 0 -12 -5 -9 -10z"/>
<path d="M10990 12662 c-14 -2 -31 -11 -37 -19 -10 -13 -13 -305 -13 -1329 l0
-1312 -25 -67 c-62 -165 -121 -232 -278 -320 -89 -49 -241 -68 -347 -44 -132
30 -322 175 -379 289 -52 103 -64 290 -26 401 58 167 171 283 337 345 65 25
87 28 203 28 l130 1 2 292 c3 365 15 338 -161 348 -83 5 -148 3 -197 -5 -93
-15 -270 -74 -329 -108 -25 -15 -62 -36 -82 -47 -157 -84 -351 -292 -441 -472
-107 -213 -149 -435 -128 -672 18 -195 99 -415 206 -561 94 -128 346 -327 499
-395 96 -42 260 -86 369 -97 229 -25 522 39 707 154 152 95 325 252 367 333 9
17 19 32 22 35 6 5 9 10 68 114 18 32 47 97 64 145 66 186 69 240 69 977 0
402 4 662 10 678 13 36 33 33 120 -20 41 -25 102 -58 135 -74 79 -38 264 -99
340 -111 90 -15 233 -28 254 -22 30 8 41 50 37 143 -2 47 -4 168 -5 270 -1
102 -5 191 -10 198 -4 8 -40 18 -80 23 -42 5 -84 17 -99 27 -15 11 -49 22 -75
26 -67 10 -156 59 -279 154 -219 169 -300 301 -334 547 -9 61 -21 116 -27 124
-8 9 -25 12 -55 8 -24 -3 -58 -1 -76 4 -30 8 -407 17 -456 11z"/>
<path d="M8770 10760 c0 -5 7 -10 15 -10 8 0 15 5 15 10 0 6 -7 10 -15 10 -8
0 -15 -4 -15 -10z"/>
<path d="M10350 10488 c-14 -6 -32 -12 -41 -13 -39 -4 -189 -113 -189 -137 0
-5 -16 -29 -35 -52 -19 -24 -32 -46 -28 -50 4 -3 -3 -19 -14 -34 -23 -32 -34
-103 -21 -147 5 -16 10 -56 12 -88 3 -32 10 -65 18 -74 24 -29 77 -43 163 -44
75 -1 93 3 154 31 84 39 140 94 181 178 24 49 29 71 24 98 -6 34 -34 48 -49
24 -4 -7 -17 -1 -32 15 -14 14 -29 25 -34 25 -5 0 -15 13 -23 29 -14 26 -14
30 5 47 28 25 43 55 32 63 -12 9 -33 59 -33 81 0 12 10 21 29 25 17 4 28 11
25 18 -6 15 -111 19 -144 5z"/>
<path d="M10562 10474 c-18 -19 -7 -64 15 -64 21 0 42 29 43 58 0 16 -6 22
-22 22 -13 -1 -29 -8 -36 -16z"/>
<path d="M8545 10360 c3 -5 8 -10 11 -10 2 0 4 5 4 10 0 6 -5 10 -11 10 -5 0
-7 -4 -4 -10z"/>
<path d="M9680 6670 c0 -7 14 -8 38 -4 51 9 53 14 4 14 -23 0 -42 -5 -42 -10z"/>
<path d="M10016 6673 c-3 -3 -3 -10 0 -14 7 -12 34 -11 34 0 0 11 -26 22 -34
14z"/>
<path d="M10535 5370 c-3 -5 -2 -10 4 -10 5 0 13 5 16 10 3 6 2 10 -4 10 -5 0
-13 -4 -16 -10z"/>
<path d="M10403 5318 c2 -7 14 -13 27 -13 13 0 25 6 28 13 2 8 -7 12 -28 12
-21 0 -30 -4 -27 -12z"/>
<path d="M9837 4943 c6 -15 13 -16 31 -4 10 6 7 10 -11 13 -18 4 -24 1 -20 -9z"/>
<path d="M9721 4929 c11 -11 27 -18 35 -15 8 3 14 1 14 -4 0 -6 5 -10 10 -10
6 0 10 7 10 15 0 10 -10 15 -29 15 -17 0 -33 5 -36 10 -3 6 -10 10 -16 10 -5
0 0 -9 12 -21z"/>
<path d="M9805 4930 c3 -5 10 -10 16 -10 5 0 9 5 9 10 0 6 -7 10 -16 10 -8 0
-12 -4 -9 -10z"/>
<path d="M9808 16813 c-21 -2 -38 -8 -38 -14 0 -5 -3 -8 -7 -8 -21 3 -25 -3
-10 -18 8 -10 16 -22 16 -28 0 -5 4 -11 10 -13 6 -2 11 2 11 8 0 20 55 65 75
62 10 -3 15 0 11 7 -4 6 -13 10 -19 9 -7 -1 -29 -3 -49 -5z"/>
<path d="M14800 16273 c0 -5 5 -15 10 -23 9 -13 11 -13 20 0 15 22 12 30 -10
30 -11 0 -20 -3 -20 -7z"/>
<path d="M9296 16261 c-4 -7 -5 -15 -2 -18 9 -9 19 4 14 18 -4 11 -6 11 -12 0z"/>
<path d="M15110 16246 c-8 -8 -31 -16 -50 -18 -38 -3 -73 -31 -84 -65 -7 -21
8 -41 18 -25 3 5 16 7 29 5 18 -4 29 4 50 36 15 23 34 41 42 41 8 0 15 9 15
20 0 24 -1 24 -20 6z"/>
<path d="M9266 16182 c-4 -7 -16 -10 -25 -7 -10 3 -24 -1 -31 -10 -11 -13 -8
-15 16 -15 36 0 58 13 52 31 -3 10 -6 10 -12 1z"/>
<path d="M15390 14701 c-14 -28 13 -42 54 -28 58 20 52 47 -11 47 -22 0 -36
-6 -43 -19z"/>
<path d="M4528 13523 c-10 -2 -18 -11 -18 -19 0 -8 -7 -14 -15 -14 -20 0 -85
-69 -85 -92 0 -12 7 -18 24 -18 14 0 28 5 31 10 4 6 10 8 14 6 4 -3 14 7 21
22 8 15 25 42 38 60 15 21 19 32 10 32 -9 0 -9 3 2 10 15 10 8 11 -22 3z"/>
<path d="M16710 12015 c0 -8 6 -15 14 -15 7 0 19 7 26 15 11 13 8 15 -14 15
-16 0 -26 -5 -26 -15z"/>
<path d="M17903 10873 c-16 -3 -23 -11 -23 -28 0 -21 4 -24 34 -23 30 1 35 5
38 30 5 29 1 31 -49 21z"/>
<path d="M17750 10830 c0 -5 9 -10 19 -10 11 0 23 5 26 10 4 6 -5 10 -19 10
-14 0 -26 -4 -26 -10z"/>
<path d="M17635 10809 c-11 -16 1 -22 30 -15 16 4 23 11 19 18 -6 9 -9 9 -12
0 -2 -7 -8 -12 -13 -12 -6 0 -7 5 -4 10 3 6 2 10 -4 10 -5 0 -13 -5 -16 -11z"/>
<path d="M17645 10769 c-12 -19 5 -23 22 -6 16 16 16 17 1 17 -9 0 -20 -5 -23
-11z"/>
</g>
</svg>
